<svg xmlns="http://www.w3.org/2000/svg" viewBox="0 0 32 32" role="img" aria-label="Airstream Explorer">
  <rect width="32" height="32" rx="7" fill="#1F1B16"/>
  <!-- polished aluminium trailer shell: rounded 'loaf' profile -->
  <path d="M5 19.2c0-3.3 3.3-6 9.2-6 4.9 0 9.4 1.2 11.6 3.1.9.8 1.2 1.7 1.2 2.9v1.3c0 .7-.5 1.2-1.2 1.2H6.2C5.5 21.7 5 21.2 5 20.5z" fill="#E9E4DA"/>
  <path d="M5 19.2c0-3.3 3.3-6 9.2-6 4.9 0 9.4 1.2 11.6 3.1.9.8 1.2 1.7 1.2 2.9" fill="none" stroke="#FBF8F2" stroke-width="1.1" stroke-linecap="round"/>
  <!-- copper window band -->
  <path d="M9.6 16.1c2.6-.9 9.2-.9 13.4.5" fill="none" stroke="#B05C32" stroke-width="1.6" stroke-linecap="round"/>
  <!-- wheel -->
  <circle cx="12.5" cy="22" r="2.6" fill="#1F1B16" stroke="#E9E4DA" stroke-width="1.1"/>
  <circle cx="12.5" cy="22" r=".7" fill="#E9E4DA"/>
</svg>
